{
  "accessors": [
    {
      "bufferView": 2,
      "componentType": 5126,
      "count": 65534,
      "max": [
        97.369216918945312,
        88.246200561523438,
        66.563705444335938
      ],
      "min": [
        -47.812652587890625,
        -46.992198944091797,
        -2.2419180870056152
      ],
      "type": "VEC3"
    },
    {
      "bufferView": 2,
      "byteOffset": 786408,
      "componentType": 5126,
      "count": 65534,
      "max": [
        1,
        1,
        1
      ],
      "min": [
        -1,
        -1,
        -1
      ],
      "type": "VEC3"
    },
    {
      "bufferView": 3,
      "componentType": 5126,
      "count": 65534,
      "max": [
        1,
        1,
        1,
        1
      ],
      "min": [
        -1,
        -1,
        -1,
        -1
      ],
      "type": "VEC4"
    },
    {
      "bufferView": 1,
      "componentType": 5126,
      "count": 65534,
      "max": [
        0.99641585350036621,
        0.9989808201789856
      ],
      "min": [
        0.0029926598072052002,
        0.0027341702952980995
      ],
      "type": "VEC2"
    },
    {
      "bufferView": 0,
      "componentType": 5125,
      "count": 95394,
      "max": [
        65533
      ],
      "min": [
        0
      ],
      "type": "SCALAR"
    },
    {
      "bufferView": 2,
      "byteOffset": 1572816,
      "componentType": 5126,
      "count": 25621,
      "max": [
        91.317100524902344,
        88.246200561523438,
        66.462486267089844
      ],
      "min": [
        -37.598628997802734,
        -46.992198944091797,
        -2.9348015785217285
      ],
      "type": "VEC3"
    },
    {
      "bufferView": 2,
      "byteOffset": 1880268,
      "componentType": 5126,
      "count": 25621,
      "max": [
        0.99999725818634033,
        0.99997425079345703,
        1
      ],
      "min": [
        -0.99999505281448364,
        -0.99996739625930786,
        -1
      ],
      "type": "VEC3"
    },
    {
      "bufferView": 3,
      "byteOffset": 1048544,
      "componentType": 5126,
      "count": 25621,
      "max": [
        0.99998724460601807,
        1,
        1,
        1
      ],
      "min": [
        -0.9999956488609314,
        -1,
        -1,
        -1
      ],
      "type": "VEC4"
    },
    {
      "bufferView": 1,
      "byteOffset": 524272,
      "componentType": 5126,
      "count": 25621,
      "max": [
        0.98656803369522095,
        0.99791455268859863
      ],
      "min": [
        0.003153044730424881,
        0.0031738043762743473
      ],
      "type": "VEC2"
    },
    {
      "bufferView": 0,
      "byteOffset": 381576,
      "componentType": 5125,
      "count": 47310,
      "max": [
        25620
      ],
      "min": [
        0
      ],
      "type": "SCALAR"
    },
    {
      "bufferView": 2,
      "byteOffset": 2187720,
      "componentType": 5126,
      "count": 176,
      "max": [
        39.985286712646484,
        37.428997039794922,
        5.8446102142333984
      ],
      "min": [
        0.98600006103515625,
        -2.9410400390625,
        2.5466535091400146
      ],
      "type": "VEC3"
    },
    {
      "bufferView": 2,
      "byteOffset": 2189832,
      "componentType": 5126,
      "count": 176,
      "max": [
        0.97165369987487793,
        0.98801034688949585,
        0.12137984484434128
      ],
      "min": [
        -0.97922545671463013,
        -0.99212712049484253,
        -1
      ],
      "type": "VEC3"
    },
    {
      "bufferView": 3,
      "byteOffset": 1458480,
      "componentType": 5126,
      "count": 176,
      "max": [
        0.99534285068511963,
        0.98341560363769531,
        1.7986094462685287e-05,
        1
      ],
      "min": [
        -0.99951654672622681,
        -0.97585856914520264,
        -8.9710310930968262e-06,
        1
      ],
      "type": "VEC4"
    },
    {
      "bufferView": 0,
      "byteOffset": 570816,
      "componentType": 5125,
      "count": 264,
      "max": [
        175
      ],
      "min": [
        0
      ],
      "type": "SCALAR"
    }
  ],
  "asset": {
    "generator": "Sketchfab (OSG glTF plugin)",
    "version": "2.0"
  },
  "bufferViews": [
    {
      "buffer": 0,
      "byteLength": 571872,
      "byteOffset": 0,
      "name": "floatBufferViews",
      "target": 34963
    },
    {
      "buffer": 0,
      "byteLength": 729240,
      "byteOffset": 571872,
      "byteStride": 8,
      "name": "floatBufferViews",
      "target": 34962
    },
    {
      "buffer": 0,
      "byteLength": 2191944,
      "byteOffset": 1301112,
      "byteStride": 12,
      "name": "floatBufferViews",
      "target": 34962
    },
    {
      "buffer": 0,
      "byteLength": 1461296,
      "byteOffset": 3493056,
      "byteStride": 16,
      "name": "floatBufferViews",
      "target": 34962
    }
  ],
  "buffers": [
    {
      "byteLength": 4954352,
      "uri": "scene.bin"
    }
  ],
  "images": [
    {
      "uri": "textures/basecolor.png"
    }
  ],
  "materials": [
    {
      "doubleSided": true,
      "emissiveFactor": [
        0,
        0,
        0
      ],
      "name": "medieval alley",
      "pbrMetallicRoughness": {
        "baseColorFactor": [
          1,
          1,
          1,
          1
        ],
        "baseColorTexture": {
          "index": 0,
          "texCoord": 0
        },
        "metallicFactor": 0,
        "roughnessFactor": 0.95770514949999996
      }
    },
    {
      "doubleSided": true,
      "emissiveFactor": [
        1,
        1,
        1
      ],
      "name": "emmision",
      "pbrMetallicRoughness": {
        "baseColorFactor": [
          0.80000000000000004,
          0.80000000000000004,
          0.80000000000000004,
          1
        ],
        "metallicFactor": 0,
        "roughnessFactor": 0.95770514949999996
      }
    }
  ],
  "meshes": [
    {
      "name": "box2_medieval alley_0",
      "primitives": [
        {
          "attributes": {
            "NORMAL": 1,
            "POSITION": 0,
            "TANGENT": 2,
            "TEXCOORD_0": 3
          },
          "indices": 4,
          "material": 0,
          "mode": 4
        }
      ]
    },
    {
      "name": "box2_medieval alley_0",
      "primitives": [
        {
          "attributes": {
            "NORMAL": 6,
            "POSITION": 5,
            "TANGENT": 7,
            "TEXCOORD_0": 8
          },
          "indices": 9,
          "material": 0,
          "mode": 4
        }
      ]
    },
    {
      "name": "box2_emmision_0",
      "primitives": [
        {
          "attributes": {
            "NORMAL": 11,
            "POSITION": 10,
            "TANGENT": 12
          },
          "indices": 13,
          "material": 1,
          "mode": 4
        }
      ]
    }
  ],
  "nodes": [
    {
      "children": [
        1
      ],
      "name": "RootNode (gltf orientation matrix)",
      "rotation": [
        -0.70710678118654746,
        -0,
        -0,
        0.70710678118654757
      ]
    },
    {
      "children": [
        2
      ],
      "name": "RootNode (model correction matrix)"
    },
    {
      "children": [
        3
      ],
      "matrix": [
        1,
        0,
        0,
        0,
        0,
        0,
        1,
        0,
        0,
        -1,
        0,
        0,
        0,
        0,
        0,
        1
      ],
      "name": "c72c75f6f4fb409084676e7a48eede60.fbx"
    },
    {
      "children": [
        4
      ],
      "name": "RootNode"
    },
    {
      "children": [
        5
      ],
      "matrix": [
        -0.55528518294597995,
        -2.9975181685945188e-06,
        -28.883630353415398,
        0,
        -21.591208021188542,
        0.00015538415842718847,
        0.41508902270614478,
        0,
        0.00015531240942480177,
        21.595201491750434,
        -5.2269983617880671e-06,
        0,
        267.40777587890625,
        21.278499603271484,
        207.20320129394531,
        1
      ],
      "name": "box2"
    },
    {
      "children": [
        6,
        7,
        8
      ],
      "name": "Geode"
    },
    {
      "mesh": 0,
      "name": "box2_medieval alley_0"
    },
    {
      "mesh": 1,
      "name": "box2_medieval alley_0"
    },
    {
      "mesh": 2,
      "name": "box2_emmision_0"
    }
  ],
  "samplers": [
    {
      "magFilter": 9729,
      "minFilter": 9987,
      "wrapS": 10497,
      "wrapT": 10497
    }
  ],
  "scene": 0,
  "scenes": [
    {
      "name": "OSG_Scene",
      "nodes": [
        0
      ]
    }
  ],
  "textures": [
    {
      "sampler": 0,
      "source": 0
    }
  ]
}

